<svg version="1.2" xmlns="http://www.w3.org/2000/svg" viewBox="0 0 322 273" width="322" height="273">
	<style>
		.s0 { fill: #000000 } 
	</style>
	<path class="s0" d="m173 1l8 4 22 14 24 15 25 16 11 8 8 10 5 12 1 5v16l-3 12-7 12-3 3 2 4 7 8 6 12 2 9v19l-4 14-7 11-7 7-10 6-12 4-9 1h-58v-66l28-1v38l34-1 10-5 4-6 2-7v-10l-4-11-7-6-7-3-30-1v-29l29-1 8-4 5-6 2-7v-8l-5-10-17-11-19-12-5-3v34l-12-6-13-8-3-2z"/>
	<path class="s0" d="m150 1h1v70l-20 12-7 4h-2l-1-33-21 13-19 12-3 5-1 9 3 8 4 5 12 9 14 11 18 14 10 9 5 6 5 10 3 14v43l-9 1h-93v-62h26l2 1v32h46l-2-17-4-8-9-8-17-13-17-14-9-7-6-5-7-11-3-9-1-6v-10l3-13 6-10 9-9 16-10 22-14 19-12 24-15z"/>
	<path id="The Sims Builds" class="s0" aria-label="The Sims Builds"  d="m15.2 272h-6.4v-29.2h-8.1v-5.7l22.6 0.1v5.6h-8.1zm17.8 0h-6.1v-38.1h5.9v12.6l-0.1 3.8q1-1.5 2.8-2.6 1.8-1.2 4.7-1.2 3.8 0 5.6 2.4 1.9 2.4 1.9 6.7v16.4h-6.4v-15.8q0-2.1-1-3.3-1-1.3-2.8-1.3-1.7 0-3.1 1.3-1.4 1.2-1.4 3.3zm31.8 0.7q-4.2 0-6.8-1.8-2.6-1.8-3.7-4.7-1.2-2.9-1.2-6.3 0-3.7 1.3-6.7 1.4-3 3.9-4.9 2.6-1.8 6.4-1.8 5.6 0 7.8 3.3 2.2 3.2 2.2 9.1 0 0.5 0 1.3 0 0.8-0.1 1.4h-15q0.2 3 1.7 4.6 1.5 1.7 4.5 1.7 1.6 0 3.4-0.7 1.7-0.7 2.6-1.6l2 4.7q-1 0.7-3.2 1.5-2.1 0.9-5.8 0.9zm-5.2-15h8.8q0-2.6-0.5-4-0.4-1.4-1.2-1.9-0.8-0.5-1.9-0.5-2.5 0-3.8 1.9-1.3 1.8-1.4 4.5zm38.6 14.9q-3.7 0-6.4-1.3-2.8-1.2-4.1-2.5l2.6-5.3q0.5 0.7 1.6 1.5 1.2 0.9 2.7 1.5 1.5 0.7 3.1 0.7 1.9 0 3.3-1.1 1.4-1 1.4-3.1 0-2-1.5-3.2-1.4-1.2-3.9-2.7-2-1.2-3.9-2.6-2-1.4-3.3-3.4-1.3-2-1.3-5.1 0-4.1 2.7-6.8 2.6-2.6 7.6-2.6 2.6 0 4.4 0.6 1.8 0.6 2.9 1.3 1.1 0.8 1.6 1.3l-2.8 5.1q-0.3-0.5-1.1-1.2-0.9-0.7-2.1-1.3-1.2-0.5-2.6-0.5-2 0-3.1 1.1-1 1.2-1 2.8 0 2 1.5 3.3 1.5 1.2 3.6 2.5 2.4 1.4 4.4 2.8 2 1.4 3.2 3.4 1.2 2 1.2 5 0 4.6-2.8 7.2-2.9 2.6-7.9 2.6zm23.3-29.5h-7v-6.7h7zm-0.3 29h-6.5v-24.9h6.5zm11.9 0h-6.4v-24.9h5.7l0.2 3.3q1-1.5 2.7-2.7 1.7-1.2 4.6-1.2 2.6 0 4.2 1.1 1.7 1.1 2.6 3.2 0.9-1.6 2.7-3 1.8-1.3 5-1.3 3.7 0 5.6 2.4 1.8 2.4 1.8 6.6v16.5h-6.3v-15.8q0-2.1-0.8-3.4-0.8-1.3-2.6-1.3-1.8 0-3.2 1.3-1.4 1.3-1.4 3.4v15.8h-6.4v-15.8q0-2.1-0.9-3.4-0.9-1.4-2.7-1.4-1.8 0-3.1 1.4-1.3 1.3-1.3 3.4zm42.4 0.4q-2.7 0-4.5-0.5-1.7-0.5-2.7-1.2-0.9-0.6-1.3-1.1l1.8-4.7q1.1 0.9 2.8 1.7 1.8 0.9 4 0.9 1.8 0 2.5-0.7 0.7-0.7 0.7-1.6 0-1.2-1.6-2.1-1.6-1-3.8-1.9-1.2-0.5-2.7-1.4-1.4-0.8-2.4-2.2-1-1.4-1-3.6 0-3.4 2.4-5.4 2.5-2 7-2 2.9 0 4.9 0.8 2.1 0.9 2.7 1.6l-1.7 4.5q-0.9-0.8-2.4-1.5-1.5-0.6-3.3-0.6-1.9 0-2.6 0.5-0.8 0.5-0.8 1.6 0 1.2 1.4 2 1.3 0.8 3.2 1.5 3.1 1.2 5 3 1.9 1.8 1.9 4.6 0 2-0.9 3.8-1 1.8-3.1 2.9-2.1 1.1-5.5 1.1zm33.5-0.4h-9.4v-34.9h9.3q6.1 0 8.9 2.5 2.8 2.4 2.8 6.8 0 2-0.9 4-1 2.1-3.2 3.1 3 0.7 4.4 2.9 1.5 2.2 1.5 5.5 0 4.6-3.2 7.3-3.1 2.8-10.2 2.8zm-0.1-29.9h-3v9.6h4q1.7 0 2.7-0.8 1-0.8 1.4-2 0.4-1.2 0.4-2.3 0-1.8-0.8-2.8-0.8-1-2-1.3-1.3-0.4-2.7-0.4zm0.5 14.3h-3.5v10.5h3.8q1.5 0 2.9-0.4 1.4-0.4 2.3-1.5 0.9-1.2 0.9-3.4 0-2.3-1-3.4-0.9-1.1-2.4-1.5-1.4-0.3-3-0.3zm25.4 16.2q-3.7 0-5.5-2.4-1.8-2.5-1.8-6.7v-16.4h6.2v15.9q0 2 0.8 3.3 0.7 1.3 2.5 1.3 1.8 0 3-1.3 1.2-1.3 1.2-3.3v-15.9h6.2v24.9h-5.6l-0.1-3.3q-1 1.5-2.6 2.7-1.5 1.2-4.3 1.2zm24.7-29.6h-7v-6.6h7zm-0.3 28.9h-6.5v-24.9h6.5zm12.7 0h-6.1v-38h6.1zm15.1 0.7q-3 0-5.2-1.6-2.2-1.6-3.5-4.6-1.1-2.9-1.1-6.9 0-6.1 2.4-9.6 2.6-3.5 7.5-3.5 2.6 0 4.3 1.3 1.8 1.2 2.3 3.6l-0.4-3.6v-13.8h5.9v38h-5.5v-5.1q-0.6 2.6-2.3 4.2-1.7 1.6-4.4 1.6zm1.5-4.9q1.8 0 3.2-1.9 1.5-1.9 1.5-6.2 0-3.9-1.2-6-1-2.1-3.3-2.1-1.2 0-2.4 0.7-1.1 0.7-1.9 2.5-0.8 1.7-0.8 4.8 0 4.1 1.4 6.2 1.4 2 3.5 2zm24 4.7q-2.7 0-4.5-0.5-1.7-0.6-2.7-1.2-0.9-0.7-1.3-1.1l1.8-4.8q1.1 0.9 2.8 1.8 1.8 0.9 4 0.9 1.8 0 2.5-0.8 0.7-0.7 0.7-1.5 0-1.2-1.6-2.2-1.6-0.9-3.8-1.8-1.2-0.6-2.7-1.4-1.4-0.9-2.4-2.3-1-1.4-1-3.6 0-3.4 2.4-5.4 2.5-2 7-2 2.9 0 4.9 0.9 2.1 0.8 2.7 1.5l-1.6 4.5q-1-0.7-2.5-1.4-1.5-0.7-3.3-0.7-1.9 0-2.6 0.5-0.8 0.5-0.8 1.6 0 1.2 1.4 2 1.3 0.8 3.2 1.6 3.1 1.2 5 3 1.9 1.8 1.9 4.5 0 2.1-0.9 3.9-0.9 1.7-3.1 2.9-2.1 1.1-5.5 1.1z"/>
	<path class="s0" d="m143 93h16v17h-16l-1-1v-15z"/>
	<path class="s0" d="m166 116h16v17h-16z"/>
	<path class="s0" d="m143 116h16v17h-16z"/>
	<path class="s0" d="m166 93h16v17h-16z"/>
</svg>