<svg version="1.2" xmlns="http://www.w3.org/2000/svg" viewBox="0 0 233 222" width="233" height="222">
	<style>
		.s0 { fill: #000000 } 
	</style>
	<path class="s0" d="m125 0l8 4 22 14 24 15 25 16 11 8 8 10 5 12 1 5v16l-3 12-7 12-3 3 2 4 7 8 6 12 2 9v19l-4 14-7 11-7 7-10 6-12 4-9 1h-58v-66l28-1v38l34-1 10-5 4-6 2-7v-10l-4-11-7-6-7-3-30-1v-29l29-1 8-4 5-6 2-7v-8l-5-10-17-11-19-12-5-3v34l-12-6-13-8-3-2z"/>
	<path class="s0" d="m102 0h1v70l-20 12-7 4h-2l-1-33-21 13-19 12-3 5-1 9 3 8 4 5 12 9 14 11 18 14 10 9 5 6 5 10 3 14v43l-9 1h-93v-62h26l2 1v32h46l-2-17-4-8-9-8-17-13-17-14-9-7-6-5-7-11-3-9-1-6v-10l3-13 6-10 9-9 16-10 22-14 19-12 24-15z"/>
	<path class="s0" d="m118 115h16v17h-16z"/>
	<path class="s0" d="m95 115h16v17h-16z"/>
	<path class="s0" d="m118 92h16v17h-16z"/>
	<path class="s0" d="m95 92h16v17h-16l-1-1v-15z"/>
</svg>